<svg width="0" height="0" class="hidden">
  <symbol viewBox="0 0 69 69" fill="none" xmlns="http://www.w3.org/2000/svg" id="natural-language-processing">
    <g clip-path="url(#clip0)" fill="#fff">
      <path d="M49.594 38.812h-2.48l-3.019-8.948c-.215-.54-.754-.863-1.401-.647a1.104 1.104 0 0 0-.647.54l-3.234 7.115-4.529-13.585c-.215-.539-.754-.862-1.401-.646-.431.107-.647.43-.755.862l-2.48 14.555-1.617-7.116c-.108-.539-.754-.862-1.293-.755a1.1 1.1 0 0 0-.647.54l-3.02 5.93h-3.665c-.647 0-1.078.43-1.078 1.077s.431 1.078 1.078 1.078h4.313c.431 0 .754-.215.97-.646l1.94-3.99 2.48 9.164c.108.432.54.755 1.078.755.54 0 .97-.431.97-.862l2.48-15.094 3.99 12.075c.215.539.754.863 1.401.647a1.1 1.1 0 0 0 .647-.54l3.234-7.115 2.372 7.116c.108.431.54.755.97.755h3.235c.647 0 1.078-.432 1.078-1.079 0-.646-.323-1.186-.97-1.186z"></path>
      <path d="M49.917 0H19.083a5.061 5.061 0 0 0-5.067 5.067v58.974a5.061 5.061 0 0 0 5.067 5.067h30.942a5.061 5.061 0 0 0 5.067-5.067V5.067C54.984 2.264 52.72 0 49.917 0zm-5.283 2.156L42.478 6.47H26.522l-2.156-4.313h20.268zm8.194 61.777a2.899 2.899 0 0 1-2.91 2.91H19.082a2.899 2.899 0 0 1-2.911-2.91V5.067a2.899 2.899 0 0 1 2.91-2.91h2.912l3.234 6.468h18.544l3.234-6.469h2.911a2.899 2.899 0 0 1 2.911 2.911v58.866z"></path>
      <path d="M20.484 62.531h28.032v2.157H20.484V62.53z"></path>
    </g>
    <defs>
      <clipPath id="clip0">
        <path fill="#fff" d="M0 0h69v69H0z"></path>
      </clipPath>
    </defs>
  </symbol>
  <symbol viewBox="0 0 85 85" fill="none" xmlns="http://www.w3.org/2000/svg" id="3d">
    <path d="M13.728 54.235c.69 0 1.25-.56 1.25-1.25v-8.617a1.25 1.25 0 0 0-2.5 0v8.617c0 .69.56 1.25 1.25 1.25zm0-17.233c.69 0 1.25-.56 1.25-1.25v-3.463l2.965-1.789a1.25 1.25 0 0 0-1.293-2.14l-3.568 2.153a1.25 1.25 0 0 0-.604 1.07v4.168c0 .69.56 1.25 1.25 1.25zm10.786-10.678c.22 0 .443-.058.645-.18l7.217-4.356a1.25 1.25 0 1 0-1.293-2.14l-7.216 4.355a1.25 1.25 0 0 0 .647 2.321zm28.067-4.529l7.157 4.353a1.25 1.25 0 0 0 1.3-2.137L53.88 19.66a1.25 1.25 0 0 0-1.3 2.136zm14.313 8.707l2.96 1.8v3.465a1.25 1.25 0 0 0 2.501 0v-4.168a1.25 1.25 0 0 0-.6-1.068l-3.561-2.166a1.25 1.25 0 0 0-1.3 2.137zm4.211 12.621c-.69 0-1.25.56-1.25 1.25v8.607a1.25 1.25 0 0 0 2.5 0v-8.607c0-.69-.56-1.25-1.25-1.25zM59.738 71.204l-7.157 4.354a1.25 1.25 0 0 0 1.3 2.136l7.156-4.353a1.25 1.25 0 0 0-1.3-2.136zM45.425 79.91l-2.913 1.773-2.92-1.762a1.25 1.25 0 1 0-1.292 2.14l3.568 2.154a1.248 1.248 0 0 0 1.296-.002l3.56-2.166a1.25 1.25 0 0 0-1.299-2.136zm-13.05-4.345l-7.216-4.356a1.25 1.25 0 1 0-1.292 2.14l7.216 4.357a1.25 1.25 0 0 0 1.292-2.14zM42.5 33.46c.69 0 1.25-.56 1.25-1.25v-.96a1.25 1.25 0 0 0-2.5 0v.96c0 .69.56 1.25 1.25 1.25zm0 7.17c.69 0 1.25-.56 1.25-1.25v-.96a1.25 1.25 0 1 0-2.5 0v.96c0 .69.56 1.25 1.25 1.25z"
      fill="#fff"></path>
    <path d="M79.768 66.13a5.21 5.21 0 0 0-3.482 1.33l-3.93-2.246v-3.628a1.25 1.25 0 0 0-2.502 0v2.2l-4.504-2.574c.002-.029.003-.057.003-.086v-24.9c0-.86-.456-1.67-1.19-2.118L43.785 21.713l-.036-.02v-5.27l1.675 1.019a1.25 1.25 0 0 0 1.3-2.137l-2.975-1.809v-2.578a5.24 5.24 0 0 0 3.982-5.08A5.238 5.238 0 0 0 42.5.604a5.238 5.238 0 0 0-5.232 5.232 5.24 5.24 0 0 0 3.982 5.08v2.594l-2.95 1.78a1.25 1.25 0 1 0 1.292 2.141l1.658-1v5.259l-.034.018-20.538 12.398a2.493 2.493 0 0 0-1.198 2.123v7.696a1.25 1.25 0 0 0 2.5 0V37.75l19.27 11.631v23.361L22.227 61.261c-.01-.021-.02-.043-.032-.064a1.25 1.25 0 0 0-.216-.276V49.254a1.25 1.25 0 0 0-2.5 0v11.87c0 .06.003.12.007.18l-4.508 2.577V61.6a1.25 1.25 0 0 0-2.5 0v3.708L8.713 67.46a5.21 5.21 0 0 0-3.482-1.33A5.239 5.239 0 0 0 0 71.362a5.238 5.238 0 0 0 5.232 5.233 5.238 5.238 0 0 0 5.233-5.233c0-.644-.118-1.262-.332-1.832l3.804-2.174 2.713 1.638a1.25 1.25 0 0 0 1.292-2.14l-1.519-.918 4.475-2.557 20.318 12.265c.127.076.258.139.393.19a1.246 1.246 0 0 0 1.785-.002c.134-.052.266-.116.392-.193l8.048-4.895a1.25 1.25 0 1 0-1.3-2.136l-6.784 4.126V49.38l19.102-11.62v23.355l-7.716 4.694a1.25 1.25 0 0 0 1.3 2.137l7.583-4.613 4.466 2.551-1.591.968a1.25 1.25 0 0 0 1.3 2.137l2.773-1.687 3.9 2.229a5.206 5.206 0 0 0-.332 1.832 5.238 5.238 0 0 0 5.233 5.233A5.238 5.238 0 0 0 85 71.362a5.238 5.238 0 0 0-5.232-5.232zM5.232 74.094a2.735 2.735 0 0 1-2.731-2.732 2.735 2.735 0 0 1 2.731-2.731 2.735 2.735 0 0 1 2.732 2.731 2.735 2.735 0 0 1-2.732 2.732zM39.768 5.837A2.735 2.735 0 0 1 42.5 3.106a2.735 2.735 0 0 1 2.732 2.731A2.735 2.735 0 0 1 42.5 8.57a2.735 2.735 0 0 1-2.732-2.732zM41.25 24.61v1.316a1.25 1.25 0 0 0 2.5 0v-1.307l17.947 10.917L43.75 46.452v-1.464a1.25 1.25 0 1 0-2.5 0v1.473l-18.1-10.925 18.1-10.926zm38.518 49.484a2.735 2.735 0 0 1-2.732-2.732 2.735 2.735 0 0 1 2.732-2.731 2.735 2.735 0 0 1 2.731 2.731 2.735 2.735 0 0 1-2.731 2.732z"
      fill="#fff"></path>
  </symbol>
  <symbol viewBox="0 0 75 75" fill="none" xmlns="http://www.w3.org/2000/svg" id="predictive-chart">
    <path d="M74.85 20.515C74.85 9.203 65.647 0 54.335 0c-6.772 0-12.768 3.312-16.507 8.383l-4.015-1.205A3.62 3.62 0 0 0 30.2 3.62a3.625 3.625 0 0 0-3.62 3.62c0 .513.11 1 .304 1.443l-3.56 6.172a3.573 3.573 0 0 0-1.571-.374c-.564 0-1.09.14-1.566.371L15.373 8.76c.215-.463.345-.975.345-1.52a3.625 3.625 0 0 0-3.62-3.62 3.625 3.625 0 0 0-3.62 3.62c0 .975.39 1.856 1.017 2.507L4.09 20.56c-.146-.018-.29-.045-.439-.045a3.625 3.625 0 0 0-3.62 3.62 3.625 3.625 0 0 0 3.62 3.62c.232 0 .456-.026.674-.068l4.147 7.108C3.378 38.302.03 44.167.03 50.803c0 10.711 8.714 19.425 19.425 19.425 1.005 0 2.05-.091 3.19-.282l1.197-.2-3.026-17.58L38.4 55.191l.2-1.198a19.55 19.55 0 0 0 .282-3.19c0-10.712-8.715-19.428-19.427-19.428-3.213 0-6.24.797-8.91 2.183l-4.143-7.1a3.58 3.58 0 0 0 .868-2.323c0-.974-.39-1.855-1.018-2.507l5.406-10.813c.146.018.29.045.44.045.562 0 1.09-.14 1.565-.37l4.813 6.092a3.584 3.584 0 0 0-.345 1.519 3.625 3.625 0 0 0 3.62 3.62 3.625 3.625 0 0 0 3.621-3.62c0-.513-.11-1-.303-1.442l3.559-6.173a3.572 3.572 0 0 0 1.571.374 3.6 3.6 0 0 0 2.834-1.397l3.42 1.027a20.374 20.374 0 0 0-2.634 10.024c0 10.076 7.306 18.459 16.895 20.177v2.752h-2.413v25.342a6.04 6.04 0 0 0 6.034 6.034 6.041 6.041 0 0 0 6.034-6.034V43.444h-2.414v-2.752C67.544 38.974 74.85 30.59 74.85 20.515zM21.047 67.728a15.24 15.24 0 0 1-1.59.086c-5.203 0-9.861-2.353-12.983-6.044l11.849-9.875 2.724 15.833zm15.421-16.925c0 .51-.028 1.035-.085 1.59l-15.838-2.725V33.845c8.872.566 15.923 7.944 15.923 16.958zM18.131 33.858v15.055L5.051 59.812a16.888 16.888 0 0 1-2.608-9.009c0-5.748 2.874-10.83 7.25-13.912l1.362 2.334 2.085-1.216-1.377-2.36a16.863 16.863 0 0 1 6.368-1.791zM2.443 24.136a1.208 1.208 0 0 1 2.414 0 1.208 1.208 0 0 1-2.414 0zm9.655-15.689a1.208 1.208 0 0 1 0-2.413 1.208 1.208 0 0 1 0 2.413zm9.654 10.861a1.208 1.208 0 0 1 0-2.413c.664 0 1.207.54 1.207 1.207 0 .665-.543 1.206-1.207 1.206zm8.447-10.86a1.208 1.208 0 1 1 1.207-1.207c0 .666-.542 1.206-1.207 1.206zm6.034 12.067c0-3.405.963-6.584 2.605-9.308l2.386.717a15.576 15.576 0 0 0-2.577 8.591c0 8.65 7.038 15.688 15.688 15.688 3.703 0 7.303-1.323 10.134-3.723l-1.56-1.84a13.28 13.28 0 0 1-8.574 3.15c-7.32 0-13.275-5.956-13.275-13.275 0-2.943.974-5.656 2.6-7.859l10.692 3.212c.025.49.144.952.346 1.372l-4.846 4.845a3.569 3.569 0 0 0-1.551-.363 3.625 3.625 0 0 0-3.62 3.62 3.625 3.625 0 0 0 3.62 3.62 3.625 3.625 0 0 0 3.62-3.62c0-.557-.136-1.079-.363-1.55l4.845-4.845c.473.225.994.361 1.552.361a3.625 3.625 0 0 0 3.62-3.62 3.625 3.625 0 0 0-3.62-3.62 3.61 3.61 0 0 0-2.91 1.486l-9.589-2.879c2.356-2.127 5.463-3.434 8.879-3.434 7.319 0 13.274 5.955 13.274 13.274 0 3.134-1.119 6.18-3.15 8.574l1.84 1.56a15.693 15.693 0 0 0 3.724-10.134c0-8.65-7.038-15.688-15.688-15.688-4.549 0-8.637 1.958-11.506 5.059l-2.544-.764c3.323-4.089 8.384-6.708 14.05-6.708 9.981 0 18.101 8.12 18.101 18.101 0 9.982-8.12 18.102-18.101 18.102-9.982 0-18.102-8.12-18.102-18.102zm20.515-4.827a1.208 1.208 0 0 1 2.414 0 1.208 1.208 0 0 1-2.414 0zm-7.24 9.654a1.208 1.208 0 1 1-1.207-1.207 1.21 1.21 0 0 1 1.207 1.207zm8.447 20.516v2.413h-7.24v-2.413h7.24zm-3.62 26.549a3.625 3.625 0 0 1-3.62-3.62V50.684h7.24v18.101a3.625 3.625 0 0 1-3.62 3.62zm1.206-28.963h-2.413v-2.475c.402.024.798.061 1.207.061.407 0 .805-.037 1.206-.06v2.474z"
      fill="#fff"></path>
    <path d="M26.314 75l1.188-.197a19.375 19.375 0 0 0 15.954-15.954l.198-1.19-20.809-3.468L26.314 75zm1.976-2.817L25.781 57.13l15.055 2.509A16.96 16.96 0 0 1 28.29 72.183zm27.251-3.397a1.207 1.207 0 1 1-2.414 0 1.207 1.207 0 0 1 2.414 0z" fill="#fff"></path>
  </symbol>
  <symbol viewBox="0 0 76 76" fill="none" xmlns="http://www.w3.org/2000/svg" id="algorithm">
    <g clip-path="url(#clip0)" fill="#fff">
      <path d="M38.079 32.946c-.615 0-1.113.498-1.113 1.113v1.9l-.69-.71a1.113 1.113 0 0 0-1.597 1.55l2.601 2.68c.21.216.498.338.799.338h.009a1.12 1.12 0 0 0 .802-.35l2.522-2.68a1.114 1.114 0 0 0-1.621-1.526l-.599.635V34.06c0-.615-.498-1.113-1.113-1.113zm14.672 31.679H23.406a2.67 2.67 0 0 0-2.668 2.668v6.04A2.671 2.671 0 0 0 23.406 76h8.112a1.113 1.113 0 0 0 0-2.226h-8.112a.442.442 0 0 1-.441-.442v-6.039c0-.243.198-.441.441-.441h29.345c.244 0 .442.198.442.441v6.04a.442.442 0 0 1-.442.44H36.676a1.113 1.113 0 1 0 0 2.227h16.075a2.671 2.671 0 0 0 2.668-2.668v-6.039a2.671 2.671 0 0 0-2.668-2.668zm0-44.526H31.135a1.113 1.113 0 0 0 0 2.226H52.75c.244 0 .442.198.442.442v6.038a.442.442 0 0 1-.442.442H23.406a.442.442 0 0 1-.441-.442v-6.038c0-.244.198-.442.441-.442h2.57a1.113 1.113 0 0 0 0-2.226h-2.57a2.67 2.67 0 0 0-2.668 2.668v6.038a2.67 2.67 0 0 0 2.668 2.668h29.345a2.671 2.671 0 0 0 2.668-2.668v-6.038a2.671 2.671 0 0 0-2.668-2.668zM23.43 48.566a2.653 2.653 0 0 0 1.681 2.49l10.82 4.31a5.801 5.801 0 0 0 4.297 0l10.819-4.31a2.653 2.653 0 0 0 1.68-2.49 2.653 2.653 0 0 0-1.701-2.475l-4.072-1.583a1.113 1.113 0 0 0-.806 2.076l4.071 1.582a.42.42 0 0 1 .282.41.42.42 0 0 1-.278.411l-10.82 4.31c-.854.34-1.795.34-2.649 0l-10.82-4.31a.42.42 0 0 1-.277-.411.42.42 0 0 1 .281-.41l10.844-4.214a3.572 3.572 0 0 1 2.593 0l1.99.773a1.113 1.113 0 1 0 .806-2.075l-1.99-.773a5.792 5.792 0 0 0-4.205 0l-10.844 4.214a2.653 2.653 0 0 0-1.702 2.475zM38.079 11.98c-.615 0-1.113.499-1.113 1.114v1.899l-.69-.71a1.113 1.113 0 0 0-1.597 1.55l2.601 2.68c.21.217.498.338.799.338h.009c.304-.002.593-.129.802-.35l2.522-2.68a1.113 1.113 0 0 0-1.621-1.526l-.599.636v-1.837c0-.615-.498-1.114-1.113-1.114zm25.085 35.545h-5.38a1.113 1.113 0 0 0 0 2.227h5.38c.244 0 .442.198.442.441v18.565a.442.442 0 0 1-.442.441h-2.743l.669-.649a1.113 1.113 0 1 0-1.55-1.598l-2.68 2.601a1.113 1.113 0 0 0 .012 1.61l2.68 2.522a1.111 1.111 0 0 0 1.574-.048c.42-.447.4-1.152-.048-1.573l-.678-.638h2.765a2.67 2.67 0 0 0 2.668-2.668V50.193a2.671 2.671 0 0 0-2.669-2.668zM14.887 30.088a1.11 1.11 0 0 0 1.574.023l2.68-2.6a1.113 1.113 0 0 0-.013-1.61l-2.68-2.522A1.113 1.113 0 1 0 14.922 25l.678.638h-2.764a2.67 2.67 0 0 0-2.668 2.667V46.87a2.67 2.67 0 0 0 2.668 2.668h5.38a1.113 1.113 0 0 0 0-2.226h-5.38a.442.442 0 0 1-.442-.442V28.306c0-.244.198-.442.441-.442h2.744l-.669.65a1.113 1.113 0 0 0-.023 1.574zM52.751 0H23.406a2.67 2.67 0 0 0-2.668 2.668v6.039a2.67 2.67 0 0 0 2.668 2.668h29.345a2.671 2.671 0 0 0 2.668-2.668V2.668A2.671 2.671 0 0 0 52.751 0zm.442 8.707a.442.442 0 0 1-.442.441H23.406a.442.442 0 0 1-.441-.441V2.668c0-.243.198-.441.441-.441h29.345c.244 0 .442.198.442.441v6.039z"></path>
    </g>
    <defs>
      <clipPath id="clip0">
        <path fill="#fff" d="M0 0h76v76H0z"></path>
      </clipPath>
    </defs>
  </symbol>
  <symbol viewBox="0 0 66 66" fill="none" xmlns="http://www.w3.org/2000/svg" id="vision">
    <g clip-path="url(#clip0)" fill="#fff">
      <path d="M4.125 24.75a4.119 4.119 0 0 0 2.239-7.58l3.66-10.983h3.382a1.031 1.031 0 1 0 0-2.062H9.281a1.031 1.031 0 0 0-.978.705l-3.9 11.698c-.093-.006-.183-.028-.278-.028a4.125 4.125 0 0 0 0 8.25zm0-6.188a2.063 2.063 0 1 1 0 4.126 2.063 2.063 0 0 1 0-4.125zM63.771 33.56a1.031 1.031 0 0 0 0-1.12C63.296 31.705 51.906 14.438 33 14.438S2.704 31.704 2.228 32.44a1.031 1.031 0 0 0 0 1.12c.476.735 11.866 18.002 30.772 18.002S63.296 34.296 63.77 33.56zM33 49.5C17.084 49.5 6.469 35.947 4.349 33c2.116-2.95 12.71-16.5 28.65-16.5 15.916 0 26.532 13.553 28.652 16.5C59.535 35.95 48.94 49.5 33 49.5z"></path>
      <path d="M58.551 32.339C55.171 28.196 45.913 18.563 33 18.563c-12.84 0-22.144 9.645-25.55 13.791a1.031 1.031 0 0 0 0 1.307C10.829 37.804 20.087 47.437 33 47.437c12.839 0 22.144-9.645 25.55-13.791a1.032 1.032 0 0 0 .001-1.307zM45.375 33A12.375 12.375 0 1 1 33 20.625 12.388 12.388 0 0 1 45.375 33zm-35.785.011a38.967 38.967 0 0 1 13.086-10.085 14.391 14.391 0 0 0 .03 20.182A38.51 38.51 0 0 1 9.59 33.011zm33.73 10.063a14.391 14.391 0 0 0-.031-20.182 38.51 38.51 0 0 1 13.12 10.097 38.968 38.968 0 0 1-13.087 10.085h-.002z"></path>
      <path d="M33 26.813a1.031 1.031 0 0 0 1.031-1.032V23.72a1.031 1.031 0 1 0-2.062 0v2.062A1.031 1.031 0 0 0 33 26.813zm0 12.375a1.031 1.031 0 0 0-1.031 1.03v2.063a1.031 1.031 0 1 0 2.062 0V40.22A1.031 1.031 0 0 0 33 39.187zm-5.077-11.422a1.032 1.032 0 1 0 1.674-1.212l-1.213-1.669a1.033 1.033 0 1 0-1.675 1.213l1.214 1.668zm10.154 10.468a1.03 1.03 0 0 0-1.853.445 1.03 1.03 0 0 0 .184.767l1.213 1.669a1.032 1.032 0 0 0 1.67-1.213l-1.214-1.668zm-14.885-8.421a1.031 1.031 0 0 0 .662 1.3l1.959.637a1.031 1.031 0 1 0 .637-1.96l-1.96-.637a1.031 1.031 0 0 0-1.298.66zm18.954 5.074l-1.96-.637a1.031 1.031 0 0 0-.637 1.96l1.96.637a1.031 1.031 0 0 0 .638-1.962v.002zm-15.03.025a1.03 1.03 0 0 0-1.3-.662l-1.96.637a1.031 1.031 0 1 0 .64 1.962l1.959-.638a1.031 1.031 0 0 0 .66-1.299zm11.768-3.824a1.031 1.031 0 0 0 1.3.662l1.959-.637a1.032 1.032 0 1 0-.639-1.96l-1.959.638a1.031 1.031 0 0 0-.661 1.297zm-10.961 7.146l-1.214 1.668a1.031 1.031 0 0 0 1.669 1.213l1.219-1.669a1.03 1.03 0 1 0-1.669-1.212h-.005zm9.318-10.043a1.03 1.03 0 0 0 .836-.424l1.213-1.67a1.03 1.03 0 1 0-1.668-1.212l-1.213 1.669a1.031 1.031 0 0 0 .833 1.637zM33 37.125a4.125 4.125 0 1 0 0-8.25 4.125 4.125 0 0 0 0 8.25zm0-6.188a2.063 2.063 0 1 1 0 4.126 2.063 2.063 0 0 1 0-4.126zm8.25-20.624a5.166 5.166 0 0 0 5.053-4.126h9.673l3.661 10.982a4.114 4.114 0 1 0 2.238-.669c-.095 0-.185.022-.279.028L57.697 4.83a1.03 1.03 0 0 0-.978-.705H46.303a5.157 5.157 0 1 0-5.053 6.188zm22.687 10.312a2.062 2.062 0 1 1-4.124 0 2.062 2.062 0 0 1 4.124 0zM41.25 2.062a3.094 3.094 0 1 1 0 6.188 3.094 3.094 0 0 1 0-6.188zM17.531 6.188h2.166a5.156 5.156 0 1 0 0-2.063H17.53a1.031 1.031 0 0 0 0 2.063zm7.219-4.125a3.094 3.094 0 1 1 0 6.187 3.094 3.094 0 0 1 0-6.187zM11.344 9.281a1.031 1.031 0 0 0 1.031 1.031h3.094a1.031 1.031 0 1 0 0-2.062h-3.094a1.031 1.031 0 0 0-1.031 1.031z"></path>
      <path d="M50.531 8.25a1.031 1.031 0 0 0 0 2.063h3.094a1.031 1.031 0 1 0 0-2.063h-3.094zM24.75 55.688a5.165 5.165 0 0 0-5.053 4.125h-9.672L6.364 48.83a4.114 4.114 0 1 0-2.24.67c.096 0 .185-.023.28-.029L8.301 61.17a1.03 1.03 0 0 0 .979.705h10.416a5.156 5.156 0 1 0 5.053-6.187zM2.062 45.375a2.062 2.062 0 1 1 4.125 0 2.062 2.062 0 0 1-4.125 0zM24.75 63.938a3.093 3.093 0 1 1 0-6.187 3.093 3.093 0 0 1 0 6.187zM61.875 41.25a4.119 4.119 0 0 0-2.239 7.58l-3.66 10.983h-3.382a1.032 1.032 0 0 0 0 2.062h4.125a1.031 1.031 0 0 0 .978-.705l3.9-11.698c.093.006.183.028.278.028a4.125 4.125 0 0 0 0-8.25zm0 6.188a2.063 2.063 0 1 1 0-4.126 2.063 2.063 0 0 1 0 4.126zM48.469 59.813h-2.166a5.156 5.156 0 1 0 0 2.062h2.166a1.031 1.031 0 1 0 0-2.063zm-7.22 4.124a3.093 3.093 0 1 1 0-6.186 3.093 3.093 0 0 1 0 6.187z"></path>
      <path d="M15.469 57.75a1.031 1.031 0 1 0 0-2.063h-3.094a1.031 1.031 0 1 0 0 2.063h3.094zm39.187-1.031a1.031 1.031 0 0 0-1.031-1.032h-3.094a1.031 1.031 0 1 0 0 2.063h3.094a1.031 1.031 0 0 0 1.031-1.031z"></path>
    </g>
    <defs>
      <clipPath id="clip0">
        <path fill="#fff" d="M0 0h66v66H0z"></path>
      </clipPath>
    </defs>
  </symbol>
  <symbol viewBox="0 0 77 77" fill="none" xmlns="http://www.w3.org/2000/svg" id="deep-learning">
    <g clip-path="url(#clip0)">
      <path d="M77 33.946a5.275 5.275 0 0 0-5.269-5.269c-.664 0-1.299.125-1.885.35l-3.044-4.86a4.04 4.04 0 0 0 .786-2.398 4.067 4.067 0 0 0-4.062-4.062c-.624 0-1.216.142-1.745.395l-6.068-5.054a4.067 4.067 0 0 0-3.935-5.073 4.065 4.065 0 0 0-3.574 2.135l-2.616-.206a1.126 1.126 0 0 0-.176 2.243l2.316.182c.05.683.268 1.32.614 1.868l-2.775 3.03a4.038 4.038 0 0 0-2.314-.727c-.628 0-1.222.143-1.753.398l-4.97-5.449 3.698.29a1.124 1.124 0 1 0 .176-2.243l-5.636-.443a4.069 4.069 0 0 0-3.924-3.01 4.067 4.067 0 0 0-4.024 4.61l-10.266 6.675a4.048 4.048 0 0 0-2.826-1.148 4.067 4.067 0 0 0-4.062 4.062c0 1.101.441 2.1 1.155 2.833l-3.993 5.837A5.275 5.275 0 0 0 0 33.945a1.125 1.125 0 1 0 2.25 0 3.022 3.022 0 0 1 3.02-3.018 3.022 3.022 0 0 1 3.018 3.019 3.022 3.022 0 0 1-3.972 2.865 1.125 1.125 0 1 0-.709 2.136c.433.143.881.227 1.336.255l1.79 5.093a4.053 4.053 0 0 0-1.382 3.05 4.067 4.067 0 0 0 4.062 4.062c1.317 0 2.489-.63 3.231-1.605l5.861 1.086a4.069 4.069 0 0 0 3.174 4.235l.548 1.939a1.126 1.126 0 0 0 2.166-.613l-.42-1.484a4.069 4.069 0 0 0 2.646-3.807c0-.821-.245-1.585-.665-2.225l4.113-5.421c.515.237 1.087.37 1.69.37h.037l1.13 5.807a5.263 5.263 0 0 0-.294 8.603l-3.207 5.235a4.04 4.04 0 0 0-3.193-.586l-.42-1.48a1.125 1.125 0 1 0-2.165.612l.573 2.022a4.046 4.046 0 0 0-1.125 2.8 4.067 4.067 0 0 0 4.063 4.063 4.067 4.067 0 0 0 4.062-4.062 4.04 4.04 0 0 0-.293-1.512l3.762-6.142a5.273 5.273 0 0 0 5.756-2.642l5.78 1.267a4.067 4.067 0 0 0 4.044 4.433 4.067 4.067 0 0 0 4.062-4.062c0-.722-.19-1.401-.522-1.99L56.41 53.5a4.067 4.067 0 0 0 5.17-4.903l3.713-.848a4.064 4.064 0 0 0 3.502 2.008 4.067 4.067 0 0 0 4.062-4.062c0-1.31-.623-2.476-1.588-3.22l.478-3.26A5.275 5.275 0 0 0 77 33.946zM27.155 68.707a1.814 1.814 0 0 1-1.811-1.812 1.812 1.812 0 1 1 3.317-1.006l.011.018a1.8 1.8 0 0 1 .295.988c0 1-.813 1.812-1.812 1.812zm36.371-48.75c1 0 1.812.813 1.812 1.812 0 .999-.813 1.812-1.812 1.812a1.814 1.814 0 0 1-1.812-1.812c0-1 .813-1.812 1.812-1.812zm-11.748-9.732a1.813 1.813 0 0 1 0 3.623c-.45 0-.862-.166-1.18-.44l-.004-.004-.007-.005a1.806 1.806 0 0 1-.62-1.363c0-.999.812-1.811 1.811-1.811zm-1.758 5.471a4.047 4.047 0 0 0 4.527-.691l5.536 4.611a4.037 4.037 0 0 0-.62 2.153c0 .7.179 1.359.492 1.934l-4.288 2.408a4.04 4.04 0 0 0-2.463-.835 4.04 4.04 0 0 0-1.982.518l-4.105-3.983A4.043 4.043 0 0 0 47 18.994l3.02-3.298zm4.996 13.642c0 .49-.197.936-.515 1.262l-.005.006a1.805 1.805 0 0 1-1.292.544c-1 0-1.812-.813-1.812-1.812 0-.999.813-1.812 1.812-1.812.999 0 1.812.813 1.812 1.812zM42.06 19.201l.008-.008.007-.006a1.803 1.803 0 0 1 2.63.298l.013.018a1.799 1.799 0 0 1 .104 1.958l-.01.017a1.81 1.81 0 0 1-3.372-.916c0-.543.24-1.029.62-1.361zm1.192 5.423c.978 0 1.876-.348 2.578-.925l3.808 3.694a4.038 4.038 0 0 0-.497 1.945c0 1.005.367 1.925.974 2.635l-3.151 5.365a4.037 4.037 0 0 0-3.55.074l-9.263-9.992a5.237 5.237 0 0 0 .639-3.812l4.8-1.287a4.067 4.067 0 0 0 3.662 2.303zm3.825 16.402c0 1-.813 1.812-1.812 1.812a1.814 1.814 0 0 1-1.812-1.812c0-.512.215-.975.558-1.305l.005-.004a1.804 1.804 0 0 1 1.248-.502c1 0 1.813.812 1.813 1.811zM32.602 29.06l9.173 9.894a3.63 3.63 0 0 0-.19.36l-5.901-.534a4.072 4.072 0 0 0-3.45-2.993l-.44-6.275c.283-.127.554-.279.808-.452zm-2.272-1.42l-.032.008a3.013 3.013 0 0 1-.66.075 3.022 3.022 0 0 1-3.018-3.018 3.022 3.022 0 0 1 3.019-3.019 3.02 3.02 0 0 1 3.018 3.019 3.021 3.021 0 0 1-2.327 2.935zm5.305 13.393l5.604.506c.1.784.422 1.5.904 2.079L37.66 49.16a5.244 5.244 0 0 0-2.6-.282l-1.1-5.649a4.079 4.079 0 0 0 1.675-2.196zm-4.79-32.741c1 0 1.812.812 1.812 1.812a1.813 1.813 0 1 1-1.812-1.812zm-3.094 4.44a4.054 4.054 0 0 0 6.51-.434l5.559 6.097a4.036 4.036 0 0 0-.599 1.695l-5.38 1.442a5.264 5.264 0 0 0-4.202-2.096 5.268 5.268 0 0 0-4.443 2.442l-7.41-1.782a4.059 4.059 0 0 0-.11-.814l10.075-6.55zM17.24 22.28l7.177 1.726a5.24 5.24 0 0 0 1.03 3.888l-5.892 5.49a4.035 4.035 0 0 0-1.963-.561l-1.782-9.096a4.097 4.097 0 0 0 1.43-1.447zm.253 12.79c.509 0 .968.213 1.298.552l.006.007.004.004c.311.325.503.765.503 1.25 0 .747-.454 1.39-1.102 1.666-.002.002-.004.002-.007.003a1.803 1.803 0 0 1-1.77-.209 1.809 1.809 0 0 1 1.067-3.272zm-3.765-16.64a1.814 1.814 0 0 1 1.756 2.25l-.005.02-.002.01a1.813 1.813 0 0 1-1.749 1.344 1.814 1.814 0 0 1-1.811-1.812c0-1 .812-1.812 1.811-1.812zM9.413 49.156A1.814 1.814 0 0 1 7.6 47.344c0-.687.384-1.285.949-1.593l.02-.01a1.814 1.814 0 0 1 2.654 1.603c0 1-.813 1.812-1.811 1.812zm1.062-5.732a4.053 4.053 0 0 0-1.695-.092l-1.577-4.487a5.276 5.276 0 0 0 3.335-4.9c0-1.552-.676-2.95-1.748-3.915l3.994-5.838c.272.065.555.102.845.109l1.782 9.095a4.063 4.063 0 0 0-1.98 3.487c0 .898.293 1.73.79 2.403l-3.746 4.138zm8.816 5.321l-5.83-1.08a4.046 4.046 0 0 0-1.036-3.042l3.584-3.96a4.04 4.04 0 0 0 1.905.26l2.277 6.935a4.104 4.104 0 0 0-.9.887zm3.266 4.224a1.814 1.814 0 0 1-1.812-1.812c0-.768.482-1.425 1.159-1.688l.007-.002a1.798 1.798 0 0 1 1.842.333c.377.332.616.817.616 1.357 0 1-.813 1.812-1.812 1.812zm5.801-10.93l-4.115 5.424a4.037 4.037 0 0 0-1.931-.36l-2.308-7.031A4.056 4.056 0 0 0 21.1 35.02l6.073-5.66a5.223 5.223 0 0 0 2.396.612l.435 6.184a4.067 4.067 0 0 0-2.31 3.663c0 .82.245 1.582.663 2.22zm3.4-.408c-.454 0-.869-.169-1.187-.446l-.012-.01a1.806 1.806 0 0 1-.613-1.355 1.813 1.813 0 1 1 1.811 1.811zm4.051 15.482a3.022 3.022 0 0 1-3.018-3.019 3.022 3.022 0 0 1 3.018-3.018 3.022 3.022 0 0 1 3.019 3.018 3.022 3.022 0 0 1-3.019 3.019zm14.458 2.937c-1 0-1.812-.813-1.812-1.812 0-1 .813-1.812 1.812-1.812.999 0 1.812.813 1.812 1.812 0 .999-.813 1.812-1.812 1.812zm1.937-5.382a4.056 4.056 0 0 0-5.142 1.08l-5.996-1.316a5.252 5.252 0 0 0-1.51-4.038l4.453-5.506a4.044 4.044 0 0 0 3.917-.796l5.94 4.069a4.044 4.044 0 0 0 .656 4.058l-2.318 2.449zm5.448-3.224c-.332 0-.642-.092-.91-.248l-.021-.013a1.81 1.81 0 0 1 .931-3.363c1 0 1.812.813 1.812 1.812 0 .999-.813 1.812-1.812 1.812zm7.085-5.878l-4.415 1.008a4.043 4.043 0 0 0-2.67-1.004 4.04 4.04 0 0 0-2.418.8l-6.081-4.165a4.049 4.049 0 0 0-.463-3.36l3.305-5.628a4.048 4.048 0 0 0 3.239-.362l10.11 10.696a4.037 4.037 0 0 0-.607 2.015zm-7.94-14.334a4.053 4.053 0 0 0 .219-3.297l4.598-2.583a4.035 4.035 0 0 0 3.398.196l2.954 4.717a5.25 5.25 0 0 0-1.504 3.68 5.275 5.275 0 0 0 3.08 4.791l-.427 2.91a4.037 4.037 0 0 0-2.1.397L56.796 31.231zm11.997 16.273c-.824 0-1.52-.554-1.739-1.309v-.005l-.005-.015a1.814 1.814 0 0 1 1.744-2.294 1.797 1.797 0 0 1 .783.18 1.813 1.813 0 0 1 1.029 1.631c0 1-.813 1.812-1.812 1.812zm2.291-10.612l-.034-.009a3.022 3.022 0 0 1-2.338-2.938 3.022 3.022 0 0 1 3.018-3.019 3.022 3.022 0 0 1 3.019 3.019 3.022 3.022 0 0 1-3.665 2.947z"
        fill="#fff"></path>
    </g>
    <defs>
      <clipPath id="clip0">
        <path fill="#fff" d="M0 0h77v77H0z"></path>
      </clipPath>
    </defs>
  </symbol>
<symbol id="headline" viewBox="0 0 1242 135" fill="none" xmlns="http://www.w3.org/2000/svg">
<g opacity="0.3">
<mask id="path-1-outside-1" maskUnits="userSpaceOnUse" x="0" y="0" width="1242" height="135" fill="black">
<rect fill="white" width="1242" height="135"/>
<path d="M99.3869 133V94.1852H89.495V16.5556H70.1291V94.1852H21.5053V16.5556H2V113.593H79.8817V133H99.3869Z"/>
<path d="M130.079 113.593L178.703 48.855V113.593H198.069V16.5556H178.703L130.079 81.1545V16.5556H110.574V113.593H130.079Z"/>
<path d="M220.157 16.5556L210.544 26.3979V89.6106L220.157 99.1757H259.168V113.593H278.673V99.1757H317.544L327.297 89.6106V26.3979L317.544 16.5556H278.673V2H259.168V16.5556H220.157ZM230.049 79.7683V35.963H259.168V79.7683H230.049ZM278.673 79.7683V35.963H307.931V79.7683H278.673Z"/>
<path d="M359.337 65.2127V35.963H407.961V65.2127H359.337ZM359.337 113.593V84.6201H417.713L427.327 74.9164V26.3979L417.713 16.5556H339.832V113.593H359.337Z"/>
<path d="M459.339 94.1852V35.963H507.963V94.1852H459.339ZM517.716 113.593L527.329 104.028V26.3979L517.716 16.5556H449.447L439.834 26.3979V104.028L449.447 113.593H517.716Z"/>
<path d="M560.702 94.1852V74.9164H609.326V94.1852H560.702ZM560.702 55.509V35.963H609.326V55.509H560.702ZM619.079 113.593L628.692 104.028V74.9164L619.079 65.2127L628.692 55.509V26.3979L619.079 16.5556H541.197V113.593H619.079Z"/>
<path d="M662.066 113.593L710.689 48.855V113.593H730.055V16.5556H710.689L662.066 81.1545V16.5556H642.56V113.593H662.066Z"/>
<path d="M819.019 113.593L828.632 104.028V74.9164L819.019 65.2127L828.632 55.509V26.3979L819.019 16.5556H750.75L741.137 26.3979V45.6667H760.642V35.963H809.266V55.509H780.008V74.9164H809.266V94.1852H760.642V84.6201H741.137V104.028L750.75 113.593H819.019Z"/>
<path d="M860.677 65.2127V55.509L880.043 35.963H909.301V65.2127H860.677ZM860.677 113.593V84.6201H909.301V113.593H928.667V16.5556H870.291L841.172 45.8053V113.593H860.677Z"/>
<path d="M1039.95 133V94.1852H1030.06V16.5556H1010.7V94.1852H962.073V16.5556H942.568V113.593H1020.45V133H1039.95Z"/>
<path d="M1070.65 113.593L1119.27 48.855V113.593H1138.64V16.5556H1119.27L1070.65 81.1545V16.5556H1051.14V113.593H1070.65Z"/>
<path d="M1172.01 65.2127V35.963H1220.63V65.2127H1172.01ZM1172.01 113.593V104.028L1191.38 84.6201H1220.63V113.593H1240V16.5556H1162.12L1152.51 26.3979V74.9164L1162.12 84.6201L1152.51 94.1852V113.593H1172.01Z"/>
</mask>
<path d="M99.3869 133V94.1852H89.495V16.5556H70.1291V94.1852H21.5053V16.5556H2V113.593H79.8817V133H99.3869Z" stroke="white" stroke-width="4" mask="url(#path-1-outside-1)"/>
<path d="M130.079 113.593L178.703 48.855V113.593H198.069V16.5556H178.703L130.079 81.1545V16.5556H110.574V113.593H130.079Z" stroke="white" stroke-width="4" mask="url(#path-1-outside-1)"/>
<path d="M220.157 16.5556L210.544 26.3979V89.6106L220.157 99.1757H259.168V113.593H278.673V99.1757H317.544L327.297 89.6106V26.3979L317.544 16.5556H278.673V2H259.168V16.5556H220.157ZM230.049 79.7683V35.963H259.168V79.7683H230.049ZM278.673 79.7683V35.963H307.931V79.7683H278.673Z" stroke="white" stroke-width="4" mask="url(#path-1-outside-1)"/>
<path d="M359.337 65.2127V35.963H407.961V65.2127H359.337ZM359.337 113.593V84.6201H417.713L427.327 74.9164V26.3979L417.713 16.5556H339.832V113.593H359.337Z" stroke="white" stroke-width="4" mask="url(#path-1-outside-1)"/>
<path d="M459.339 94.1852V35.963H507.963V94.1852H459.339ZM517.716 113.593L527.329 104.028V26.3979L517.716 16.5556H449.447L439.834 26.3979V104.028L449.447 113.593H517.716Z" stroke="white" stroke-width="4" mask="url(#path-1-outside-1)"/>
<path d="M560.702 94.1852V74.9164H609.326V94.1852H560.702ZM560.702 55.509V35.963H609.326V55.509H560.702ZM619.079 113.593L628.692 104.028V74.9164L619.079 65.2127L628.692 55.509V26.3979L619.079 16.5556H541.197V113.593H619.079Z" stroke="white" stroke-width="4" mask="url(#path-1-outside-1)"/>
<path d="M662.066 113.593L710.689 48.855V113.593H730.055V16.5556H710.689L662.066 81.1545V16.5556H642.56V113.593H662.066Z" stroke="white" stroke-width="4" mask="url(#path-1-outside-1)"/>
<path d="M819.019 113.593L828.632 104.028V74.9164L819.019 65.2127L828.632 55.509V26.3979L819.019 16.5556H750.75L741.137 26.3979V45.6667H760.642V35.963H809.266V55.509H780.008V74.9164H809.266V94.1852H760.642V84.6201H741.137V104.028L750.75 113.593H819.019Z" stroke="white" stroke-width="4" mask="url(#path-1-outside-1)"/>
<path d="M860.677 65.2127V55.509L880.043 35.963H909.301V65.2127H860.677ZM860.677 113.593V84.6201H909.301V113.593H928.667V16.5556H870.291L841.172 45.8053V113.593H860.677Z" stroke="white" stroke-width="4" mask="url(#path-1-outside-1)"/>
<path d="M1039.95 133V94.1852H1030.06V16.5556H1010.7V94.1852H962.073V16.5556H942.568V113.593H1020.45V133H1039.95Z" stroke="white" stroke-width="4" mask="url(#path-1-outside-1)"/>
<path d="M1070.65 113.593L1119.27 48.855V113.593H1138.64V16.5556H1119.27L1070.65 81.1545V16.5556H1051.14V113.593H1070.65Z" stroke="white" stroke-width="4" mask="url(#path-1-outside-1)"/>
<path d="M1172.01 65.2127V35.963H1220.63V65.2127H1172.01ZM1172.01 113.593V104.028L1191.38 84.6201H1220.63V113.593H1240V16.5556H1162.12L1152.51 26.3979V74.9164L1162.12 84.6201L1152.51 94.1852V113.593H1172.01Z" stroke="white" stroke-width="4" mask="url(#path-1-outside-1)"/>
</g>
</symbol>

</svg>
